<mxfile host="app.diagrams.net" agent="Mozilla/5.0 (Macintosh; Intel Mac OS X 10_15_7) AppleWebKit/537.36 (KHTML, like Gecko) Chrome/132.0.0.0 Safari/537.36" version="26.0.11">
  <diagram name="Page-1" id="03018318-947c-dd8e-b7a3-06fadd420f32">
    <mxGraphModel dx="1466" dy="929" grid="1" gridSize="10" guides="1" tooltips="1" connect="1" arrows="1" fold="1" page="1" pageScale="1" pageWidth="1100" pageHeight="850" background="none" math="0" shadow="0">
      <root>
        <mxCell id="0" />
        <mxCell id="1" parent="0" />
        <mxCell id="ywKk5z_2qfM9JBNrJSl7-1" value="" style="rounded=0;whiteSpace=wrap;html=1;fillColor=none;" vertex="1" parent="1">
          <mxGeometry x="30" y="50" width="1040" height="60" as="geometry" />
        </mxCell>
        <mxCell id="677b7b8949515195-1" value="" style="whiteSpace=wrap;html=1;rounded=0;shadow=0;labelBackgroundColor=none;strokeColor=#000000;strokeWidth=1;fillColor=none;fontFamily=Verdana;fontSize=12;fontColor=#000000;align=center;comic=1;" parent="1" vertex="1">
          <mxGeometry x="20" y="40" width="1060" height="790" as="geometry" />
        </mxCell>
        <mxCell id="zX-MKMj06BqSPDNbv460-1" value="&lt;font style=&quot;font-size: 18px;&quot;&gt;companyitassets/reports/hardwareassets&lt;/font&gt;" style="html=1;strokeWidth=1;shadow=0;dashed=0;shape=mxgraph.ios7ui.url;fillColor=#e0e0e0;strokeColor=#c0c0c0;buttonText=;strokeColor2=#222222;fontColor=#222222;fontSize=8;spacingTop=2;align=center;whiteSpace=wrap;" parent="1" vertex="1">
          <mxGeometry x="20" width="1050" height="32.5" as="geometry" />
        </mxCell>
        <mxCell id="ywKk5z_2qfM9JBNrJSl7-2" value="&lt;font style=&quot;font-size: 14px;&quot;&gt;From&lt;/font&gt;" style="fillColor=none;strokeColor=none;html=1;fontSize=12;fontStyle=0;align=left;fontColor=#596780;fontStyle=1;fontSize=11;sketch=1;hachureGap=4;pointerEvents=0;fontFamily=Helvetica;" vertex="1" parent="1">
          <mxGeometry x="50" y="68.5" width="40" height="25" as="geometry" />
        </mxCell>
        <mxCell id="ywKk5z_2qfM9JBNrJSl7-3" value="&lt;font style=&quot;font-size: 14px;&quot; face=&quot;Helvetica&quot;&gt;04-11-24&lt;/font&gt;" style="rounded=1;arcSize=9;fillColor=#F7F8F9;align=left;spacingLeft=5;strokeColor=#DEE1E6;html=1;strokeWidth=2;fontColor=#596780;fontSize=12;sketch=1;hachureGap=4;pointerEvents=0;fontFamily=Architects Daughter;fontSource=https%3A%2F%2Ffonts.googleapis.com%2Fcss%3Ffamily%3DArchitects%2BDaughter;" vertex="1" parent="1">
          <mxGeometry x="90" y="63.5" width="150" height="33" as="geometry" />
        </mxCell>
        <mxCell id="ywKk5z_2qfM9JBNrJSl7-4" value="" style="shape=mxgraph.gmdl.calendar;fillColor=#5A6881;strokeColor=none;sketch=0;hachureGap=4;pointerEvents=0;fontFamily=Architects Daughter;fontSource=https%3A%2F%2Ffonts.googleapis.com%2Fcss%3Ffamily%3DArchitects%2BDaughter;fontSize=20;" vertex="1" parent="ywKk5z_2qfM9JBNrJSl7-3">
          <mxGeometry x="1" y="0.5" width="18" height="18" relative="1" as="geometry">
            <mxPoint x="-29" y="-9" as="offset" />
          </mxGeometry>
        </mxCell>
        <mxCell id="ywKk5z_2qfM9JBNrJSl7-5" value="&lt;font style=&quot;font-size: 14px;&quot;&gt;To&lt;/font&gt;" style="fillColor=none;strokeColor=none;html=1;fontSize=12;fontStyle=0;align=left;fontColor=#596780;fontStyle=1;fontSize=11;sketch=1;hachureGap=4;pointerEvents=0;fontFamily=Helvetica;" vertex="1" parent="1">
          <mxGeometry x="290" y="68.5" width="20" height="25" as="geometry" />
        </mxCell>
        <mxCell id="ywKk5z_2qfM9JBNrJSl7-6" value="&lt;font style=&quot;font-size: 14px;&quot; face=&quot;Helvetica&quot;&gt;04-02-25&lt;/font&gt;" style="rounded=1;arcSize=9;fillColor=#F7F8F9;align=left;spacingLeft=5;strokeColor=#DEE1E6;html=1;strokeWidth=2;fontColor=#596780;fontSize=12;sketch=1;hachureGap=4;pointerEvents=0;fontFamily=Architects Daughter;fontSource=https%3A%2F%2Ffonts.googleapis.com%2Fcss%3Ffamily%3DArchitects%2BDaughter;" vertex="1" parent="1">
          <mxGeometry x="310" y="63.5" width="150" height="33" as="geometry" />
        </mxCell>
        <mxCell id="ywKk5z_2qfM9JBNrJSl7-7" value="" style="shape=mxgraph.gmdl.calendar;fillColor=#5A6881;strokeColor=none;sketch=0;hachureGap=4;pointerEvents=0;fontFamily=Architects Daughter;fontSource=https%3A%2F%2Ffonts.googleapis.com%2Fcss%3Ffamily%3DArchitects%2BDaughter;fontSize=20;" vertex="1" parent="ywKk5z_2qfM9JBNrJSl7-6">
          <mxGeometry x="1" y="0.5" width="18" height="18" relative="1" as="geometry">
            <mxPoint x="-29" y="-9" as="offset" />
          </mxGeometry>
        </mxCell>
        <mxCell id="ywKk5z_2qfM9JBNrJSl7-8" value="Apply" style="rounded=1;fillColor=#0057D8;strokeColor=none;html=1;whiteSpace=wrap;fontColor=#ffffff;align=center;verticalAlign=middle;fontStyle=0;fontSize=12;sketch=0;" vertex="1" parent="1">
          <mxGeometry x="507" y="64.5" width="86" height="33" as="geometry" />
        </mxCell>
        <mxCell id="ywKk5z_2qfM9JBNrJSl7-9" value="" style="shape=table;startSize=0;container=1;collapsible=0;childLayout=tableLayout;fontSize=16;" vertex="1" parent="1">
          <mxGeometry x="30" y="175" width="1040" height="520" as="geometry" />
        </mxCell>
        <mxCell id="ywKk5z_2qfM9JBNrJSl7-10" value="" style="shape=tableRow;horizontal=0;startSize=0;swimlaneHead=0;swimlaneBody=0;strokeColor=inherit;top=0;left=0;bottom=0;right=0;collapsible=0;dropTarget=0;fillColor=none;points=[[0,0.5],[1,0.5]];portConstraint=eastwest;fontSize=16;" vertex="1" parent="ywKk5z_2qfM9JBNrJSl7-9">
          <mxGeometry width="1040" height="40" as="geometry" />
        </mxCell>
        <mxCell id="ywKk5z_2qfM9JBNrJSl7-11" value="Asset Type" style="shape=partialRectangle;html=1;whiteSpace=wrap;connectable=0;strokeColor=#6c8ebf;overflow=hidden;fillColor=#dae8fc;top=0;left=0;bottom=0;right=0;pointerEvents=1;fontSize=16;fontStyle=1;align=left;" vertex="1" parent="ywKk5z_2qfM9JBNrJSl7-10">
          <mxGeometry width="780" height="40" as="geometry">
            <mxRectangle width="780" height="40" as="alternateBounds" />
          </mxGeometry>
        </mxCell>
        <mxCell id="ywKk5z_2qfM9JBNrJSl7-12" value="Total Value per Type" style="shape=partialRectangle;html=1;whiteSpace=wrap;connectable=0;strokeColor=#6c8ebf;overflow=hidden;fillColor=#dae8fc;top=0;left=0;bottom=0;right=0;pointerEvents=1;fontSize=16;fontStyle=1;align=left;" vertex="1" parent="ywKk5z_2qfM9JBNrJSl7-10">
          <mxGeometry x="780" width="260" height="40" as="geometry">
            <mxRectangle width="260" height="40" as="alternateBounds" />
          </mxGeometry>
        </mxCell>
        <mxCell id="ywKk5z_2qfM9JBNrJSl7-62" style="shape=tableRow;horizontal=0;startSize=0;swimlaneHead=0;swimlaneBody=0;strokeColor=inherit;top=0;left=0;bottom=0;right=0;collapsible=0;dropTarget=0;fillColor=none;points=[[0,0.5],[1,0.5]];portConstraint=eastwest;fontSize=16;" vertex="1" parent="ywKk5z_2qfM9JBNrJSl7-9">
          <mxGeometry y="40" width="1040" height="40" as="geometry" />
        </mxCell>
        <mxCell id="ywKk5z_2qfM9JBNrJSl7-63" value="&lt;span style=&quot;font-weight: normal;&quot;&gt;Card Reader&lt;/span&gt;" style="shape=partialRectangle;html=1;whiteSpace=wrap;connectable=0;strokeColor=inherit;overflow=hidden;fillColor=none;top=0;left=0;bottom=0;right=0;pointerEvents=1;fontSize=16;fontStyle=1;align=left;" vertex="1" parent="ywKk5z_2qfM9JBNrJSl7-62">
          <mxGeometry width="780" height="40" as="geometry">
            <mxRectangle width="780" height="40" as="alternateBounds" />
          </mxGeometry>
        </mxCell>
        <mxCell id="ywKk5z_2qfM9JBNrJSl7-64" value="&lt;span style=&quot;font-weight: normal;&quot;&gt;$1,234.56&lt;/span&gt;" style="shape=partialRectangle;html=1;whiteSpace=wrap;connectable=0;strokeColor=inherit;overflow=hidden;fillColor=none;top=0;left=0;bottom=0;right=0;pointerEvents=1;fontSize=16;fontStyle=1;align=left;" vertex="1" parent="ywKk5z_2qfM9JBNrJSl7-62">
          <mxGeometry x="780" width="260" height="40" as="geometry">
            <mxRectangle width="260" height="40" as="alternateBounds" />
          </mxGeometry>
        </mxCell>
        <mxCell id="ywKk5z_2qfM9JBNrJSl7-50" style="shape=tableRow;horizontal=0;startSize=0;swimlaneHead=0;swimlaneBody=0;strokeColor=inherit;top=0;left=0;bottom=0;right=0;collapsible=0;dropTarget=0;fillColor=none;points=[[0,0.5],[1,0.5]];portConstraint=eastwest;fontSize=16;" vertex="1" parent="ywKk5z_2qfM9JBNrJSl7-9">
          <mxGeometry y="80" width="1040" height="40" as="geometry" />
        </mxCell>
        <mxCell id="ywKk5z_2qfM9JBNrJSl7-51" value="Laptop" style="shape=partialRectangle;html=1;whiteSpace=wrap;connectable=0;strokeColor=inherit;overflow=hidden;fillColor=none;top=0;left=0;bottom=0;right=0;pointerEvents=1;fontSize=16;align=left;" vertex="1" parent="ywKk5z_2qfM9JBNrJSl7-50">
          <mxGeometry width="780" height="40" as="geometry">
            <mxRectangle width="780" height="40" as="alternateBounds" />
          </mxGeometry>
        </mxCell>
        <mxCell id="ywKk5z_2qfM9JBNrJSl7-52" value="$54,321.98" style="shape=partialRectangle;html=1;whiteSpace=wrap;connectable=0;strokeColor=inherit;overflow=hidden;fillColor=none;top=0;left=0;bottom=0;right=0;pointerEvents=1;fontSize=16;align=left;" vertex="1" parent="ywKk5z_2qfM9JBNrJSl7-50">
          <mxGeometry x="780" width="260" height="40" as="geometry">
            <mxRectangle width="260" height="40" as="alternateBounds" />
          </mxGeometry>
        </mxCell>
        <mxCell id="ywKk5z_2qfM9JBNrJSl7-54" style="shape=tableRow;horizontal=0;startSize=0;swimlaneHead=0;swimlaneBody=0;strokeColor=inherit;top=0;left=0;bottom=0;right=0;collapsible=0;dropTarget=0;fillColor=none;points=[[0,0.5],[1,0.5]];portConstraint=eastwest;fontSize=16;" vertex="1" parent="ywKk5z_2qfM9JBNrJSl7-9">
          <mxGeometry y="120" width="1040" height="40" as="geometry" />
        </mxCell>
        <mxCell id="ywKk5z_2qfM9JBNrJSl7-55" value="Mobile Phone" style="shape=partialRectangle;html=1;whiteSpace=wrap;connectable=0;strokeColor=inherit;overflow=hidden;fillColor=none;top=0;left=0;bottom=0;right=0;pointerEvents=1;fontSize=16;align=left;" vertex="1" parent="ywKk5z_2qfM9JBNrJSl7-54">
          <mxGeometry width="780" height="40" as="geometry">
            <mxRectangle width="780" height="40" as="alternateBounds" />
          </mxGeometry>
        </mxCell>
        <mxCell id="ywKk5z_2qfM9JBNrJSl7-56" value="$98,543.21" style="shape=partialRectangle;html=1;whiteSpace=wrap;connectable=0;strokeColor=inherit;overflow=hidden;fillColor=none;top=0;left=0;bottom=0;right=0;pointerEvents=1;fontSize=16;align=left;" vertex="1" parent="ywKk5z_2qfM9JBNrJSl7-54">
          <mxGeometry x="780" width="260" height="40" as="geometry">
            <mxRectangle width="260" height="40" as="alternateBounds" />
          </mxGeometry>
        </mxCell>
        <mxCell id="ywKk5z_2qfM9JBNrJSl7-14" value="" style="shape=tableRow;horizontal=0;startSize=0;swimlaneHead=0;swimlaneBody=0;strokeColor=inherit;top=0;left=0;bottom=0;right=0;collapsible=0;dropTarget=0;fillColor=none;points=[[0,0.5],[1,0.5]];portConstraint=eastwest;fontSize=16;" vertex="1" parent="ywKk5z_2qfM9JBNrJSl7-9">
          <mxGeometry y="160" width="1040" height="40" as="geometry" />
        </mxCell>
        <mxCell id="ywKk5z_2qfM9JBNrJSl7-15" value="Monitor" style="shape=partialRectangle;html=1;whiteSpace=wrap;connectable=0;strokeColor=inherit;overflow=hidden;fillColor=none;top=0;left=0;bottom=0;right=0;pointerEvents=1;fontSize=16;align=left;" vertex="1" parent="ywKk5z_2qfM9JBNrJSl7-14">
          <mxGeometry width="780" height="40" as="geometry">
            <mxRectangle width="780" height="40" as="alternateBounds" />
          </mxGeometry>
        </mxCell>
        <mxCell id="ywKk5z_2qfM9JBNrJSl7-16" value="$83,456.78" style="shape=partialRectangle;html=1;whiteSpace=wrap;connectable=0;strokeColor=inherit;overflow=hidden;fillColor=none;top=0;left=0;bottom=0;right=0;pointerEvents=1;fontSize=16;align=left;" vertex="1" parent="ywKk5z_2qfM9JBNrJSl7-14">
          <mxGeometry x="780" width="260" height="40" as="geometry">
            <mxRectangle width="260" height="40" as="alternateBounds" />
          </mxGeometry>
        </mxCell>
        <mxCell id="ywKk5z_2qfM9JBNrJSl7-18" value="" style="shape=tableRow;horizontal=0;startSize=0;swimlaneHead=0;swimlaneBody=0;strokeColor=inherit;top=0;left=0;bottom=0;right=0;collapsible=0;dropTarget=0;fillColor=none;points=[[0,0.5],[1,0.5]];portConstraint=eastwest;fontSize=16;" vertex="1" parent="ywKk5z_2qfM9JBNrJSl7-9">
          <mxGeometry y="200" width="1040" height="40" as="geometry" />
        </mxCell>
        <mxCell id="ywKk5z_2qfM9JBNrJSl7-19" value="Mouse" style="shape=partialRectangle;html=1;whiteSpace=wrap;connectable=0;strokeColor=inherit;overflow=hidden;fillColor=none;top=0;left=0;bottom=0;right=0;pointerEvents=1;fontSize=16;align=left;" vertex="1" parent="ywKk5z_2qfM9JBNrJSl7-18">
          <mxGeometry width="780" height="40" as="geometry">
            <mxRectangle width="780" height="40" as="alternateBounds" />
          </mxGeometry>
        </mxCell>
        <mxCell id="ywKk5z_2qfM9JBNrJSl7-20" value="$23,456.78" style="shape=partialRectangle;html=1;whiteSpace=wrap;connectable=0;strokeColor=inherit;overflow=hidden;fillColor=none;top=0;left=0;bottom=0;right=0;pointerEvents=1;fontSize=16;align=left;" vertex="1" parent="ywKk5z_2qfM9JBNrJSl7-18">
          <mxGeometry x="780" width="260" height="40" as="geometry">
            <mxRectangle width="260" height="40" as="alternateBounds" />
          </mxGeometry>
        </mxCell>
        <mxCell id="ywKk5z_2qfM9JBNrJSl7-22" style="shape=tableRow;horizontal=0;startSize=0;swimlaneHead=0;swimlaneBody=0;strokeColor=inherit;top=0;left=0;bottom=0;right=0;collapsible=0;dropTarget=0;fillColor=none;points=[[0,0.5],[1,0.5]];portConstraint=eastwest;fontSize=16;" vertex="1" parent="ywKk5z_2qfM9JBNrJSl7-9">
          <mxGeometry y="240" width="1040" height="40" as="geometry" />
        </mxCell>
        <mxCell id="ywKk5z_2qfM9JBNrJSl7-23" value="Keyboard" style="shape=partialRectangle;html=1;whiteSpace=wrap;connectable=0;strokeColor=inherit;overflow=hidden;fillColor=none;top=0;left=0;bottom=0;right=0;pointerEvents=1;fontSize=16;align=left;" vertex="1" parent="ywKk5z_2qfM9JBNrJSl7-22">
          <mxGeometry width="780" height="40" as="geometry">
            <mxRectangle width="780" height="40" as="alternateBounds" />
          </mxGeometry>
        </mxCell>
        <mxCell id="ywKk5z_2qfM9JBNrJSl7-24" value="$45,678.65" style="shape=partialRectangle;html=1;whiteSpace=wrap;connectable=0;strokeColor=inherit;overflow=hidden;fillColor=none;top=0;left=0;bottom=0;right=0;pointerEvents=1;fontSize=16;align=left;" vertex="1" parent="ywKk5z_2qfM9JBNrJSl7-22">
          <mxGeometry x="780" width="260" height="40" as="geometry">
            <mxRectangle width="260" height="40" as="alternateBounds" />
          </mxGeometry>
        </mxCell>
        <mxCell id="ywKk5z_2qfM9JBNrJSl7-26" style="shape=tableRow;horizontal=0;startSize=0;swimlaneHead=0;swimlaneBody=0;strokeColor=inherit;top=0;left=0;bottom=0;right=0;collapsible=0;dropTarget=0;fillColor=none;points=[[0,0.5],[1,0.5]];portConstraint=eastwest;fontSize=16;" vertex="1" parent="ywKk5z_2qfM9JBNrJSl7-9">
          <mxGeometry y="280" width="1040" height="40" as="geometry" />
        </mxCell>
        <mxCell id="ywKk5z_2qfM9JBNrJSl7-27" value="PC" style="shape=partialRectangle;html=1;whiteSpace=wrap;connectable=0;strokeColor=inherit;overflow=hidden;fillColor=none;top=0;left=0;bottom=0;right=0;pointerEvents=1;fontSize=16;align=left;" vertex="1" parent="ywKk5z_2qfM9JBNrJSl7-26">
          <mxGeometry width="780" height="40" as="geometry">
            <mxRectangle width="780" height="40" as="alternateBounds" />
          </mxGeometry>
        </mxCell>
        <mxCell id="ywKk5z_2qfM9JBNrJSl7-28" value="$567,890.12" style="shape=partialRectangle;html=1;whiteSpace=wrap;connectable=0;strokeColor=inherit;overflow=hidden;fillColor=none;top=0;left=0;bottom=0;right=0;pointerEvents=1;fontSize=16;align=left;" vertex="1" parent="ywKk5z_2qfM9JBNrJSl7-26">
          <mxGeometry x="780" width="260" height="40" as="geometry">
            <mxRectangle width="260" height="40" as="alternateBounds" />
          </mxGeometry>
        </mxCell>
        <mxCell id="ywKk5z_2qfM9JBNrJSl7-58" style="shape=tableRow;horizontal=0;startSize=0;swimlaneHead=0;swimlaneBody=0;strokeColor=inherit;top=0;left=0;bottom=0;right=0;collapsible=0;dropTarget=0;fillColor=none;points=[[0,0.5],[1,0.5]];portConstraint=eastwest;fontSize=16;" vertex="1" parent="ywKk5z_2qfM9JBNrJSl7-9">
          <mxGeometry y="320" width="1040" height="40" as="geometry" />
        </mxCell>
        <mxCell id="ywKk5z_2qfM9JBNrJSl7-59" value="Printer" style="shape=partialRectangle;html=1;whiteSpace=wrap;connectable=0;strokeColor=inherit;overflow=hidden;fillColor=none;top=0;left=0;bottom=0;right=0;pointerEvents=1;fontSize=16;align=left;" vertex="1" parent="ywKk5z_2qfM9JBNrJSl7-58">
          <mxGeometry width="780" height="40" as="geometry">
            <mxRectangle width="780" height="40" as="alternateBounds" />
          </mxGeometry>
        </mxCell>
        <mxCell id="ywKk5z_2qfM9JBNrJSl7-60" value="$234,567.89" style="shape=partialRectangle;html=1;whiteSpace=wrap;connectable=0;strokeColor=inherit;overflow=hidden;fillColor=none;top=0;left=0;bottom=0;right=0;pointerEvents=1;fontSize=16;align=left;" vertex="1" parent="ywKk5z_2qfM9JBNrJSl7-58">
          <mxGeometry x="780" width="260" height="40" as="geometry">
            <mxRectangle width="260" height="40" as="alternateBounds" />
          </mxGeometry>
        </mxCell>
        <mxCell id="ywKk5z_2qfM9JBNrJSl7-30" style="shape=tableRow;horizontal=0;startSize=0;swimlaneHead=0;swimlaneBody=0;strokeColor=inherit;top=0;left=0;bottom=0;right=0;collapsible=0;dropTarget=0;fillColor=none;points=[[0,0.5],[1,0.5]];portConstraint=eastwest;fontSize=16;" vertex="1" parent="ywKk5z_2qfM9JBNrJSl7-9">
          <mxGeometry y="360" width="1040" height="40" as="geometry" />
        </mxCell>
        <mxCell id="ywKk5z_2qfM9JBNrJSl7-31" value="Router" style="shape=partialRectangle;html=1;whiteSpace=wrap;connectable=0;strokeColor=inherit;overflow=hidden;fillColor=none;top=0;left=0;bottom=0;right=0;pointerEvents=1;fontSize=16;align=left;" vertex="1" parent="ywKk5z_2qfM9JBNrJSl7-30">
          <mxGeometry width="780" height="40" as="geometry">
            <mxRectangle width="780" height="40" as="alternateBounds" />
          </mxGeometry>
        </mxCell>
        <mxCell id="ywKk5z_2qfM9JBNrJSl7-32" value="$12,345.67" style="shape=partialRectangle;html=1;whiteSpace=wrap;connectable=0;strokeColor=inherit;overflow=hidden;fillColor=none;top=0;left=0;bottom=0;right=0;pointerEvents=1;fontSize=16;align=left;" vertex="1" parent="ywKk5z_2qfM9JBNrJSl7-30">
          <mxGeometry x="780" width="260" height="40" as="geometry">
            <mxRectangle width="260" height="40" as="alternateBounds" />
          </mxGeometry>
        </mxCell>
        <mxCell id="ywKk5z_2qfM9JBNrJSl7-34" style="shape=tableRow;horizontal=0;startSize=0;swimlaneHead=0;swimlaneBody=0;strokeColor=inherit;top=0;left=0;bottom=0;right=0;collapsible=0;dropTarget=0;fillColor=none;points=[[0,0.5],[1,0.5]];portConstraint=eastwest;fontSize=16;" vertex="1" parent="ywKk5z_2qfM9JBNrJSl7-9">
          <mxGeometry y="400" width="1040" height="40" as="geometry" />
        </mxCell>
        <mxCell id="ywKk5z_2qfM9JBNrJSl7-35" value="Server" style="shape=partialRectangle;html=1;whiteSpace=wrap;connectable=0;strokeColor=inherit;overflow=hidden;fillColor=none;top=0;left=0;bottom=0;right=0;pointerEvents=1;fontSize=16;align=left;" vertex="1" parent="ywKk5z_2qfM9JBNrJSl7-34">
          <mxGeometry width="780" height="40" as="geometry">
            <mxRectangle width="780" height="40" as="alternateBounds" />
          </mxGeometry>
        </mxCell>
        <mxCell id="ywKk5z_2qfM9JBNrJSl7-36" value="$321,654.87" style="shape=partialRectangle;html=1;whiteSpace=wrap;connectable=0;strokeColor=inherit;overflow=hidden;fillColor=none;top=0;left=0;bottom=0;right=0;pointerEvents=1;fontSize=16;align=left;" vertex="1" parent="ywKk5z_2qfM9JBNrJSl7-34">
          <mxGeometry x="780" width="260" height="40" as="geometry">
            <mxRectangle width="260" height="40" as="alternateBounds" />
          </mxGeometry>
        </mxCell>
        <mxCell id="ywKk5z_2qfM9JBNrJSl7-38" style="shape=tableRow;horizontal=0;startSize=0;swimlaneHead=0;swimlaneBody=0;strokeColor=inherit;top=0;left=0;bottom=0;right=0;collapsible=0;dropTarget=0;fillColor=none;points=[[0,0.5],[1,0.5]];portConstraint=eastwest;fontSize=16;" vertex="1" parent="ywKk5z_2qfM9JBNrJSl7-9">
          <mxGeometry y="440" width="1040" height="40" as="geometry" />
        </mxCell>
        <mxCell id="ywKk5z_2qfM9JBNrJSl7-39" value="Tablet" style="shape=partialRectangle;html=1;whiteSpace=wrap;connectable=0;strokeColor=inherit;overflow=hidden;fillColor=none;top=0;left=0;bottom=0;right=0;pointerEvents=1;fontSize=16;align=left;" vertex="1" parent="ywKk5z_2qfM9JBNrJSl7-38">
          <mxGeometry width="780" height="40" as="geometry">
            <mxRectangle width="780" height="40" as="alternateBounds" />
          </mxGeometry>
        </mxCell>
        <mxCell id="ywKk5z_2qfM9JBNrJSl7-40" value="$102,345,88" style="shape=partialRectangle;html=1;whiteSpace=wrap;connectable=0;strokeColor=inherit;overflow=hidden;fillColor=none;top=0;left=0;bottom=0;right=0;pointerEvents=1;fontSize=16;align=left;" vertex="1" parent="ywKk5z_2qfM9JBNrJSl7-38">
          <mxGeometry x="780" width="260" height="40" as="geometry">
            <mxRectangle width="260" height="40" as="alternateBounds" />
          </mxGeometry>
        </mxCell>
        <mxCell id="ywKk5z_2qfM9JBNrJSl7-42" style="shape=tableRow;horizontal=0;startSize=0;swimlaneHead=0;swimlaneBody=0;strokeColor=inherit;top=0;left=0;bottom=0;right=0;collapsible=0;dropTarget=0;fillColor=none;points=[[0,0.5],[1,0.5]];portConstraint=eastwest;fontSize=16;" vertex="1" parent="ywKk5z_2qfM9JBNrJSl7-9">
          <mxGeometry y="480" width="1040" height="40" as="geometry" />
        </mxCell>
        <mxCell id="ywKk5z_2qfM9JBNrJSl7-43" value="Stationary Telephone" style="shape=partialRectangle;html=1;whiteSpace=wrap;connectable=0;strokeColor=inherit;overflow=hidden;fillColor=none;top=0;left=0;bottom=0;right=0;pointerEvents=1;fontSize=16;align=left;" vertex="1" parent="ywKk5z_2qfM9JBNrJSl7-42">
          <mxGeometry width="780" height="40" as="geometry">
            <mxRectangle width="780" height="40" as="alternateBounds" />
          </mxGeometry>
        </mxCell>
        <mxCell id="ywKk5z_2qfM9JBNrJSl7-44" value="$21,543.67" style="shape=partialRectangle;html=1;whiteSpace=wrap;connectable=0;strokeColor=inherit;overflow=hidden;fillColor=none;top=0;left=0;bottom=0;right=0;pointerEvents=1;fontSize=16;align=left;" vertex="1" parent="ywKk5z_2qfM9JBNrJSl7-42">
          <mxGeometry x="780" width="260" height="40" as="geometry">
            <mxRectangle width="260" height="40" as="alternateBounds" />
          </mxGeometry>
        </mxCell>
        <mxCell id="ywKk5z_2qfM9JBNrJSl7-67" value="" style="shape=table;startSize=0;container=1;collapsible=0;childLayout=tableLayout;fontSize=16;fillColor=#1ba1e2;fontColor=#ffffff;strokeColor=#006EAF;" vertex="1" parent="1">
          <mxGeometry x="30" y="120" width="1040" height="40" as="geometry" />
        </mxCell>
        <mxCell id="ywKk5z_2qfM9JBNrJSl7-68" value="" style="shape=tableRow;horizontal=0;startSize=0;swimlaneHead=0;swimlaneBody=0;strokeColor=inherit;top=0;left=0;bottom=0;right=0;collapsible=0;dropTarget=0;fillColor=none;points=[[0,0.5],[1,0.5]];portConstraint=eastwest;fontSize=16;" vertex="1" parent="ywKk5z_2qfM9JBNrJSl7-67">
          <mxGeometry width="1040" height="40" as="geometry" />
        </mxCell>
        <mxCell id="ywKk5z_2qfM9JBNrJSl7-69" value="&lt;font style=&quot;font-size: 20px;&quot;&gt;Total Asset Value&lt;/font&gt;" style="shape=partialRectangle;html=1;whiteSpace=wrap;connectable=0;strokeColor=#6c8ebf;overflow=hidden;fillColor=#dae8fc;top=0;left=0;bottom=0;right=0;pointerEvents=1;fontSize=16;align=left;" vertex="1" parent="ywKk5z_2qfM9JBNrJSl7-68">
          <mxGeometry width="520" height="40" as="geometry">
            <mxRectangle width="520" height="40" as="alternateBounds" />
          </mxGeometry>
        </mxCell>
        <mxCell id="ywKk5z_2qfM9JBNrJSl7-70" value="&lt;font style=&quot;font-size: 20px;&quot;&gt;$1.567.040,06&lt;/font&gt;" style="shape=partialRectangle;html=1;whiteSpace=wrap;connectable=0;strokeColor=#6c8ebf;overflow=hidden;fillColor=#dae8fc;top=0;left=0;bottom=0;right=0;pointerEvents=1;fontSize=16;align=left;" vertex="1" parent="ywKk5z_2qfM9JBNrJSl7-68">
          <mxGeometry x="520" width="520" height="40" as="geometry">
            <mxRectangle width="520" height="40" as="alternateBounds" />
          </mxGeometry>
        </mxCell>
        <mxCell id="ywKk5z_2qfM9JBNrJSl7-84" value="&lt;i&gt;&lt;font style=&quot;color: light-dark(rgb(0, 0, 0), rgb(125, 125, 125));&quot;&gt;The default date values are from: today minus 3 months, to: today&amp;nbsp;&lt;/font&gt;&lt;/i&gt;" style="text;html=1;align=left;verticalAlign=middle;whiteSpace=wrap;rounded=0;" vertex="1" parent="1">
          <mxGeometry x="620" y="63.5" width="410" height="30" as="geometry" />
        </mxCell>
      </root>
    </mxGraphModel>
  </diagram>
</mxfile>
